<?xml version="1.0" encoding="UTF-8" standalone="no"?>
<svg
   xmlns:dc="http://purl.org/dc/elements/1.1/"
   xmlns:cc="http://creativecommons.org/ns#"
   xmlns:rdf="http://www.w3.org/1999/02/22-rdf-syntax-ns#"
   xmlns:svg="http://www.w3.org/2000/svg"
   xmlns="http://www.w3.org/2000/svg"
   xmlns:sodipodi="http://sodipodi.sourceforge.net/DTD/sodipodi-0.dtd"
   xmlns:inkscape="http://www.inkscape.org/namespaces/inkscape"
   width="360"
   height="360"
   id="svg2"
   version="1.1"
   inkscape:version="0.92.3 (2405546, 2018-03-11)"
   sodipodi:docname="logomark-elementary-dark.svg"
   inkscape:export-filename="/home/daniel/elementaryblue.png"
   inkscape:export-xdpi="90"
   inkscape:export-ydpi="90">
  <metadata
     id="metadata10">
    <rdf:RDF>
      <cc:Work
         rdf:about="">
        <dc:format>image/svg+xml</dc:format>
        <dc:type
           rdf:resource="http://purl.org/dc/dcmitype/StillImage" />
        <dc:title></dc:title>
      </cc:Work>
    </rdf:RDF>
  </metadata>
  <defs
     id="defs8">
    <filter
       inkscape:collect="always"
       style="color-interpolation-filters:sRGB"
       id="filter4288"
       x="-0.012"
       width="1.024"
       y="-0.012"
       height="1.024">
      <feGaussianBlur
         inkscape:collect="always"
         stdDeviation="1.3391406"
         id="feGaussianBlur4290" />
    </filter>
    <filter
       inkscape:collect="always"
       style="color-interpolation-filters:sRGB"
       id="filter4298"
       x="-0.06"
       width="1.12"
       y="-0.06"
       height="1.12">
      <feGaussianBlur
         inkscape:collect="always"
         stdDeviation="6.695703"
         id="feGaussianBlur4300" />
    </filter>
    <clipPath
       id="highcharts-13">
      <rect
         id="rect9"
         height="338"
         width="580"
         y="0"
         x="0" />
    </clipPath>
  </defs>
  <sodipodi:namedview
     pagecolor="#ffffff"
     bordercolor="#666666"
     borderopacity="1"
     objecttolerance="10"
     gridtolerance="10"
     guidetolerance="10"
     inkscape:pageopacity="0"
     inkscape:pageshadow="2"
     inkscape:window-width="1920"
     inkscape:window-height="1017"
     id="namedview6"
     showgrid="false"
     borderlayer="true"
     fit-margin-top="0"
     fit-margin-left="0"
     fit-margin-right="0"
     fit-margin-bottom="0"
     inkscape:zoom="1.4142136"
     inkscape:cx="86.100064"
     inkscape:cy="209.40091"
     inkscape:window-x="0"
     inkscape:window-y="30"
     inkscape:window-maximized="1"
     inkscape:current-layer="svg2"
     showguides="false" />
  <g
     inkscape:groupmode="layer"
     id="layer4"
     inkscape:label="Layer 1"
     style="display:inline" />
  <path
     transform="translate(0,6.000002)"
     sodipodi:type="inkscape:offset"
     inkscape:radius="0"
     inkscape:original="M 180 46.085938 C 106.04162 46.085938 46.085938 106.04162 46.085938 180 C 46.085938 253.95838 106.04162 313.91406 180 313.91406 C 253.95838 313.91406 313.91406 253.95838 313.91406 180 C 313.91406 106.04162 253.95838 46.085938 180 46.085938 z M 180.04688 57.210938 L 180 57.240234 C 236.22444 57.240234 283.63057 95.021529 298.16016 146.57812 C 285.67753 172.40427 267.83713 195.64788 246.17188 214.45312 C 235.74578 223.47313 224.36364 231.51903 211.79492 237.18164 C 199.22621 242.84426 185.39503 246.05779 171.62109 245.27344 C 161.29064 244.67083 151.05497 241.79109 142.02539 236.75977 C 166.03413 223.75105 187.67992 206.41866 205.4043 185.66211 C 217.07388 172.03165 227.21303 156.53603 231.13477 139.05078 C 233.12434 130.30817 233.43067 121.1637 231.61328 112.38281 C 229.79588 103.60193 225.74049 95.261368 219.59961 88.71875 C 213.6022 82.348305 205.73144 77.81479 197.29492 75.5 C 188.87751 73.175649 179.88606 72.993802 171.27734 74.5625 C 154.05993 77.719031 138.65812 87.725161 126.34766 100.15039 C 104.60589 122.05477 91.166933 152.96868 93.634766 183.73047 C 94.878241 199.11136 100.0246 214.2239 108.84375 226.86914 C 110.82375 229.70045 112.99576 232.38924 115.31055 234.93359 C 102.44531 239.45795 89.102208 242.66093 75.615234 244.46875 C 64.012606 225.7209 57.306641 203.62553 57.306641 179.9707 C 57.306641 112.15321 112.2485 57.210937 180.04688 57.210938 z M 180.77539 81.974609 L 180.76562 82.013672 C 189.4126 82.013672 198.0974 84.634801 204.98438 89.857422 C 211.18265 94.544393 215.79239 101.1828 218.375 108.50977 C 220.98632 115.83673 221.65715 123.78495 220.76758 131.51367 C 218.99801 146.96151 211.20125 161.12845 201.78906 173.50586 C 185.11686 195.41024 162.95449 212.94287 138.31445 225.22461 C 135.79878 226.4681 133.24472 227.67248 130.66211 228.82031 C 125.30557 224.13334 120.71532 218.58654 117.19531 212.36914 C 109.87791 199.39869 107.46696 184.00796 108.87305 169.19141 C 110.30784 154.3653 115.37765 140.09395 122.2168 126.86523 C 130.13682 111.53216 140.93576 97.022321 156.04883 88.671875 C 163.60537 84.491867 172.14754 81.974609 180.77539 81.974609 z M 301.65625 163.5918 C 302.36834 168.94763 302.75 174.4058 302.75 179.96094 C 302.75 247.75931 247.82766 302.72266 180.0293 302.72266 C 141.95966 302.72266 107.90603 285.38887 85.427734 258.17578 C 99.316459 255.01926 112.89988 250.47682 125.92773 244.70898 C 131.63817 249.03247 137.92348 252.59081 144.61914 255.1543 C 163.87396 262.53865 185.74824 261.46615 205.24219 254.72266 C 224.72656 247.96961 242.0207 235.8802 257.08594 221.77148 C 275.01939 205.01322 290.14459 185.25663 301.65625 163.5918 z "
     style="display:inline;opacity:0.1;fill:#000000;filter:url(#filter4298)"
     id="path3461-1"
     d="M 180,46.085938 C 106.04162,46.085938 46.085938,106.04162 46.085938,180 46.085938,253.95838 106.04162,313.91406 180,313.91406 253.95838,313.91406 313.91406,253.95838 313.91406,180 313.91406,106.04162 253.95838,46.085938 180,46.085938 Z m 0.0469,11.125 -0.0469,0.0293 c 56.22444,0 103.63057,37.781295 118.16016,89.337886 -12.48263,25.82615 -30.32303,49.06976 -51.98828,67.875 -10.4261,9.02001 -21.80824,17.06591 -34.37696,22.72852 -12.56871,5.66262 -26.39989,8.87615 -40.17383,8.0918 -10.33045,-0.60261 -20.56612,-3.48235 -29.5957,-8.51367 24.00874,-13.00872 45.65453,-30.34111 63.37891,-51.09766 11.66958,-13.63046 21.80873,-29.12608 25.73047,-46.61133 1.98957,-8.74261 2.2959,-17.88708 0.47851,-26.66797 -1.8174,-8.78088 -5.87279,-17.121442 -12.01367,-23.66406 C 213.6022,82.348305 205.73144,77.81479 197.29492,75.5 c -8.41741,-2.324351 -17.40886,-2.506198 -26.01758,-0.9375 -17.21741,3.156531 -32.61922,13.162661 -44.92968,25.58789 -21.74177,21.90438 -35.180727,52.81829 -32.712894,83.58008 1.243475,15.38089 6.389834,30.49343 15.208984,43.13867 1.98,2.83131 4.15201,5.5201 6.4668,8.06445 -12.86524,4.52436 -26.208342,7.72734 -39.695316,9.53516 C 64.012606,225.7209 57.306641,203.62553 57.306641,179.9707 c 0,-67.81749 54.941859,-122.759763 122.740239,-122.759762 z m 0.72851,24.763671 -0.01,0.03906 c 8.64698,0 17.33178,2.621129 24.21876,7.84375 6.19827,4.686971 10.80801,11.325378 13.39062,18.652348 2.61132,7.32696 3.28215,15.27518 2.39258,23.0039 -1.76957,15.44784 -9.56633,29.61478 -18.97852,41.99219 -16.6722,21.90438 -38.83457,39.43701 -63.47461,51.71875 -2.51567,1.24349 -5.06973,2.44787 -7.65234,3.5957 -5.35654,-4.68697 -9.94679,-10.23377 -13.4668,-16.45117 -7.3174,-12.97045 -9.72835,-28.36118 -8.32226,-43.17773 1.43479,-14.82611 6.5046,-29.09746 13.34375,-42.32618 7.92002,-15.33307 18.71896,-29.842909 33.83203,-38.193355 7.55654,-4.180008 16.09871,-6.697266 24.72656,-6.697266 z M 301.65625,163.5918 c 0.71209,5.35583 1.09375,10.814 1.09375,16.36914 0,67.79837 -54.92234,122.76172 -122.7207,122.76172 -38.06964,0 -72.12327,-17.33379 -94.601566,-44.54688 13.888725,-3.15652 27.472146,-7.69896 40.499996,-13.4668 5.71044,4.32349 11.99575,7.88183 18.69141,10.44532 19.25482,7.38435 41.1291,6.31185 60.62305,-0.43164 19.48437,-6.75305 36.77851,-18.84246 51.84375,-32.95118 17.93345,-16.75826 33.05865,-36.51485 44.57031,-58.17968 z" />
  <path
     transform="translate(0,2.000002)"
     sodipodi:type="inkscape:offset"
     inkscape:radius="0"
     inkscape:original="M 180 46.085938 C 106.04162 46.085938 46.085938 106.04162 46.085938 180 C 46.085938 253.95838 106.04162 313.91406 180 313.91406 C 253.95838 313.91406 313.91406 253.95838 313.91406 180 C 313.91406 106.04162 253.95838 46.085938 180 46.085938 z M 180.04688 57.210938 L 180 57.240234 C 236.22444 57.240234 283.63057 95.021529 298.16016 146.57812 C 285.67753 172.40427 267.83713 195.64788 246.17188 214.45312 C 235.74578 223.47313 224.36364 231.51903 211.79492 237.18164 C 199.22621 242.84426 185.39503 246.05779 171.62109 245.27344 C 161.29064 244.67083 151.05497 241.79109 142.02539 236.75977 C 166.03413 223.75105 187.67992 206.41866 205.4043 185.66211 C 217.07388 172.03165 227.21303 156.53603 231.13477 139.05078 C 233.12434 130.30817 233.43067 121.1637 231.61328 112.38281 C 229.79588 103.60193 225.74049 95.261368 219.59961 88.71875 C 213.6022 82.348305 205.73144 77.81479 197.29492 75.5 C 188.87751 73.175649 179.88606 72.993802 171.27734 74.5625 C 154.05993 77.719031 138.65812 87.725161 126.34766 100.15039 C 104.60589 122.05477 91.166933 152.96868 93.634766 183.73047 C 94.878241 199.11136 100.0246 214.2239 108.84375 226.86914 C 110.82375 229.70045 112.99576 232.38924 115.31055 234.93359 C 102.44531 239.45795 89.102208 242.66093 75.615234 244.46875 C 64.012606 225.7209 57.306641 203.62553 57.306641 179.9707 C 57.306641 112.15321 112.2485 57.210937 180.04688 57.210938 z M 180.77539 81.974609 L 180.76562 82.013672 C 189.4126 82.013672 198.0974 84.634801 204.98438 89.857422 C 211.18265 94.544393 215.79239 101.1828 218.375 108.50977 C 220.98632 115.83673 221.65715 123.78495 220.76758 131.51367 C 218.99801 146.96151 211.20125 161.12845 201.78906 173.50586 C 185.11686 195.41024 162.95449 212.94287 138.31445 225.22461 C 135.79878 226.4681 133.24472 227.67248 130.66211 228.82031 C 125.30557 224.13334 120.71532 218.58654 117.19531 212.36914 C 109.87791 199.39869 107.46696 184.00796 108.87305 169.19141 C 110.30784 154.3653 115.37765 140.09395 122.2168 126.86523 C 130.13682 111.53216 140.93576 97.022321 156.04883 88.671875 C 163.60537 84.491867 172.14754 81.974609 180.77539 81.974609 z M 301.65625 163.5918 C 302.36834 168.94763 302.75 174.4058 302.75 179.96094 C 302.75 247.75931 247.82766 302.72266 180.0293 302.72266 C 141.95966 302.72266 107.90603 285.38887 85.427734 258.17578 C 99.316459 255.01926 112.89988 250.47682 125.92773 244.70898 C 131.63817 249.03247 137.92348 252.59081 144.61914 255.1543 C 163.87396 262.53865 185.74824 261.46615 205.24219 254.72266 C 224.72656 247.96961 242.0207 235.8802 257.08594 221.77148 C 275.01939 205.01322 290.14459 185.25663 301.65625 163.5918 z "
     style="fill:#000000;opacity:0.3;filter:url(#filter4288)"
     id="path3461-3"
     d="M 180,46.085938 C 106.04162,46.085938 46.085938,106.04162 46.085938,180 46.085938,253.95838 106.04162,313.91406 180,313.91406 253.95838,313.91406 313.91406,253.95838 313.91406,180 313.91406,106.04162 253.95838,46.085938 180,46.085938 Z m 0.0469,11.125 -0.0469,0.0293 c 56.22444,0 103.63057,37.781295 118.16016,89.337886 -12.48263,25.82615 -30.32303,49.06976 -51.98828,67.875 -10.4261,9.02001 -21.80824,17.06591 -34.37696,22.72852 -12.56871,5.66262 -26.39989,8.87615 -40.17383,8.0918 -10.33045,-0.60261 -20.56612,-3.48235 -29.5957,-8.51367 24.00874,-13.00872 45.65453,-30.34111 63.37891,-51.09766 11.66958,-13.63046 21.80873,-29.12608 25.73047,-46.61133 1.98957,-8.74261 2.2959,-17.88708 0.47851,-26.66797 -1.8174,-8.78088 -5.87279,-17.121442 -12.01367,-23.66406 C 213.6022,82.348305 205.73144,77.81479 197.29492,75.5 c -8.41741,-2.324351 -17.40886,-2.506198 -26.01758,-0.9375 -17.21741,3.156531 -32.61922,13.162661 -44.92968,25.58789 -21.74177,21.90438 -35.180727,52.81829 -32.712894,83.58008 1.243475,15.38089 6.389834,30.49343 15.208984,43.13867 1.98,2.83131 4.15201,5.5201 6.4668,8.06445 -12.86524,4.52436 -26.208342,7.72734 -39.695316,9.53516 C 64.012606,225.7209 57.306641,203.62553 57.306641,179.9707 c 0,-67.81749 54.941859,-122.759763 122.740239,-122.759762 z m 0.72851,24.763671 -0.01,0.03906 c 8.64698,0 17.33178,2.621129 24.21876,7.84375 6.19827,4.686971 10.80801,11.325378 13.39062,18.652348 2.61132,7.32696 3.28215,15.27518 2.39258,23.0039 -1.76957,15.44784 -9.56633,29.61478 -18.97852,41.99219 -16.6722,21.90438 -38.83457,39.43701 -63.47461,51.71875 -2.51567,1.24349 -5.06973,2.44787 -7.65234,3.5957 -5.35654,-4.68697 -9.94679,-10.23377 -13.4668,-16.45117 -7.3174,-12.97045 -9.72835,-28.36118 -8.32226,-43.17773 1.43479,-14.82611 6.5046,-29.09746 13.34375,-42.32618 7.92002,-15.33307 18.71896,-29.842909 33.83203,-38.193355 7.55654,-4.180008 16.09871,-6.697266 24.72656,-6.697266 z M 301.65625,163.5918 c 0.71209,5.35583 1.09375,10.814 1.09375,16.36914 0,67.79837 -54.92234,122.76172 -122.7207,122.76172 -38.06964,0 -72.12327,-17.33379 -94.601566,-44.54688 13.888725,-3.15652 27.472146,-7.69896 40.499996,-13.4668 5.71044,4.32349 11.99575,7.88183 18.69141,10.44532 19.25482,7.38435 41.1291,6.31185 60.62305,-0.43164 19.48437,-6.75305 36.77851,-18.84246 51.84375,-32.95118 17.93345,-16.75826 33.05865,-36.51485 44.57031,-58.17968 z" />
  <path
     sodipodi:type="inkscape:offset"
     inkscape:radius="0"
     inkscape:original="M 180 46.085938 C 106.04162 46.085938 46.085938 106.04162 46.085938 180 C 46.085938 253.95838 106.04162 313.91406 180 313.91406 C 253.95838 313.91406 313.91406 253.95838 313.91406 180 C 313.91406 106.04162 253.95838 46.085938 180 46.085938 z M 180.04688 57.210938 L 180 57.240234 C 236.22444 57.240234 283.63057 95.021529 298.16016 146.57812 C 285.67753 172.40427 267.83713 195.64788 246.17188 214.45312 C 235.74578 223.47313 224.36364 231.51903 211.79492 237.18164 C 199.22621 242.84426 185.39503 246.05779 171.62109 245.27344 C 161.29064 244.67083 151.05497 241.79109 142.02539 236.75977 C 166.03413 223.75105 187.67992 206.41866 205.4043 185.66211 C 217.07388 172.03165 227.21303 156.53603 231.13477 139.05078 C 233.12434 130.30817 233.43067 121.1637 231.61328 112.38281 C 229.79588 103.60193 225.74049 95.261368 219.59961 88.71875 C 213.6022 82.348305 205.73144 77.81479 197.29492 75.5 C 188.87751 73.175649 179.88606 72.993802 171.27734 74.5625 C 154.05993 77.719031 138.65812 87.725161 126.34766 100.15039 C 104.60589 122.05477 91.166933 152.96868 93.634766 183.73047 C 94.878241 199.11136 100.0246 214.2239 108.84375 226.86914 C 110.82375 229.70045 112.99576 232.38924 115.31055 234.93359 C 102.44531 239.45795 89.102208 242.66093 75.615234 244.46875 C 64.012606 225.7209 57.306641 203.62553 57.306641 179.9707 C 57.306641 112.15321 112.2485 57.210937 180.04688 57.210938 z M 180.77539 81.974609 L 180.76562 82.013672 C 189.4126 82.013672 198.0974 84.634801 204.98438 89.857422 C 211.18265 94.544393 215.79239 101.1828 218.375 108.50977 C 220.98632 115.83673 221.65715 123.78495 220.76758 131.51367 C 218.99801 146.96151 211.20125 161.12845 201.78906 173.50586 C 185.11686 195.41024 162.95449 212.94287 138.31445 225.22461 C 135.79878 226.4681 133.24472 227.67248 130.66211 228.82031 C 125.30557 224.13334 120.71532 218.58654 117.19531 212.36914 C 109.87791 199.39869 107.46696 184.00796 108.87305 169.19141 C 110.30784 154.3653 115.37765 140.09395 122.2168 126.86523 C 130.13682 111.53216 140.93576 97.022321 156.04883 88.671875 C 163.60537 84.491867 172.14754 81.974609 180.77539 81.974609 z M 301.65625 163.5918 C 302.36834 168.94763 302.75 174.4058 302.75 179.96094 C 302.75 247.75931 247.82766 302.72266 180.0293 302.72266 C 141.95966 302.72266 107.90603 285.38887 85.427734 258.17578 C 99.316459 255.01926 112.89988 250.47682 125.92773 244.70898 C 131.63817 249.03247 137.92348 252.59081 144.61914 255.1543 C 163.87396 262.53865 185.74824 261.46615 205.24219 254.72266 C 224.72656 247.96961 242.0207 235.8802 257.08594 221.77148 C 275.01939 205.01322 290.14459 185.25663 301.65625 163.5918 z "
     style="display:inline;fill:#fffbff;fill-opacity:1"
     id="path3461"
     d="M 180,46.085938 C 106.04162,46.085938 46.085938,106.04162 46.085938,180 46.085938,253.95838 106.04162,313.91406 180,313.91406 253.95838,313.91406 313.91406,253.95838 313.91406,180 313.91406,106.04162 253.95838,46.085938 180,46.085938 Z m 0.0469,11.125 -0.0469,0.0293 c 56.22444,0 103.63057,37.781295 118.16016,89.337886 -12.48263,25.82615 -30.32303,49.06976 -51.98828,67.875 -10.4261,9.02001 -21.80824,17.06591 -34.37696,22.72852 -12.56871,5.66262 -26.39989,8.87615 -40.17383,8.0918 -10.33045,-0.60261 -20.56612,-3.48235 -29.5957,-8.51367 24.00874,-13.00872 45.65453,-30.34111 63.37891,-51.09766 11.66958,-13.63046 21.80873,-29.12608 25.73047,-46.61133 1.98957,-8.74261 2.2959,-17.88708 0.47851,-26.66797 -1.8174,-8.78088 -5.87279,-17.121442 -12.01367,-23.66406 C 213.6022,82.348305 205.73144,77.81479 197.29492,75.5 c -8.41741,-2.324351 -17.40886,-2.506198 -26.01758,-0.9375 -17.21741,3.156531 -32.61922,13.162661 -44.92968,25.58789 -21.74177,21.90438 -35.180727,52.81829 -32.712894,83.58008 1.243475,15.38089 6.389834,30.49343 15.208984,43.13867 1.98,2.83131 4.15201,5.5201 6.4668,8.06445 -12.86524,4.52436 -26.208342,7.72734 -39.695316,9.53516 C 64.012606,225.7209 57.306641,203.62553 57.306641,179.9707 c 0,-67.81749 54.941859,-122.759763 122.740239,-122.759762 z m 0.72851,24.763671 -0.01,0.03906 c 8.64698,0 17.33178,2.621129 24.21876,7.84375 6.19827,4.686971 10.80801,11.325378 13.39062,18.652348 2.61132,7.32696 3.28215,15.27518 2.39258,23.0039 -1.76957,15.44784 -9.56633,29.61478 -18.97852,41.99219 -16.6722,21.90438 -38.83457,39.43701 -63.47461,51.71875 -2.51567,1.24349 -5.06973,2.44787 -7.65234,3.5957 -5.35654,-4.68697 -9.94679,-10.23377 -13.4668,-16.45117 -7.3174,-12.97045 -9.72835,-28.36118 -8.32226,-43.17773 1.43479,-14.82611 6.5046,-29.09746 13.34375,-42.32618 7.92002,-15.33307 18.71896,-29.842909 33.83203,-38.193355 7.55654,-4.180008 16.09871,-6.697266 24.72656,-6.697266 z M 301.65625,163.5918 c 0.71209,5.35583 1.09375,10.814 1.09375,16.36914 0,67.79837 -54.92234,122.76172 -122.7207,122.76172 -38.06964,0 -72.12327,-17.33379 -94.601566,-44.54688 13.888725,-3.15652 27.472146,-7.69896 40.499996,-13.4668 5.71044,4.32349 11.99575,7.88183 18.69141,10.44532 19.25482,7.38435 41.1291,6.31185 60.62305,-0.43164 19.48437,-6.75305 36.77851,-18.84246 51.84375,-32.95118 17.93345,-16.75826 33.05865,-36.51485 44.57031,-58.17968 z" />
  <path
     style="fill:#000000;fill-opacity:1;stroke-width:0.70710677"
     d="m 126.14628,223.9191 c -6.85198,-7.59183 -12.25225,-18.41285 -14.50008,-29.05513 -1.69455,-8.02283 -1.67804,-23.42095 0.0344,-32.12746 5.29974,-26.94452 22.70441,-55.9341 40.80672,-67.968486 22.74606,-15.121553 49.6866,-10.787221 61.40433,9.879046 6.19356,10.92342 7.26496,26.41171 2.78022,40.19102 -8.14915,25.0382 -33.10548,53.43673 -63.46054,72.21361 -8.74372,5.40863 -19.83171,11.04629 -21.72556,11.04629 -1.01678,0 -2.89361,-1.46887 -5.33953,-4.17889 z"
     id="path6225"
     inkscape:connector-curvature="0" />
  <path
     style="display:inline;fill:#000000;fill-opacity:1;stroke-width:0.70710677"
     d="m 163.74039,244.73679 c -7.30704,-1.39387 -16.61701,-4.73273 -16.61701,-5.9594 0,-0.54333 3.34108,-3.05187 7.42462,-5.57455 25.78325,-15.928 49.59572,-38.54032 64.41389,-61.16743 15.3495,-23.43843 19.37553,-47.69148 11.18347,-67.3697 -12.06053,-28.970688 -46.37365,-38.975183 -78.57129,-22.908617 -26.7594,13.352893 -49.12767,42.086847 -56.673403,72.801787 -6.605954,26.88959 -2.190288,53.29684 12.508273,74.80386 2.20305,3.22353 4.00555,6.15302 4.00555,6.50998 0,1.56894 -24.95458,7.87788 -31.810309,8.04219 l -3.879588,0.093 -3.995336,-7.97256 c -4.596142,-9.17144 -8.327928,-19.91815 -10.613582,-30.56476 -1.370366,-6.38318 -1.599528,-9.60668 -1.633741,-22.98097 -0.03435,-13.42776 0.177249,-16.62614 1.546423,-23.37473 2.305938,-11.36586 5.269146,-19.8783 10.816438,-31.07249 C 107.89102,55.302669 203.47392,38.21064 263.05283,93.85077 c 13.10235,12.23615 23.60471,28.05814 30.53369,45.99958 1.31056,3.39347 2.38284,7.02729 2.38284,8.07517 0,3.79996 -12.56591,24.45453 -23.39428,38.45317 -6.48026,8.3775 -21.47045,23.82292 -30.34584,31.26736 -11.48568,9.6339 -25.1995,18.00657 -36.76955,22.44884 -12.521,4.80738 -30.41473,6.79833 -41.7193,4.6419 z"
     id="path6227"
     inkscape:connector-curvature="0" />
  <path
     style="display:inline;fill:#000000;fill-opacity:1;stroke-width:0.70710677"
     d="m 163.57657,301.96737 c -18.05593,-2.46178 -35.34534,-9.02489 -50.5443,-19.18676 -3.76826,-2.51942 -7.98076,-5.54385 -9.36111,-6.72095 -5.06614,-4.32019 -14.176983,-13.60832 -14.176983,-14.45286 0,-0.47824 1.034144,-1.09454 2.298097,-1.36955 4.041957,-0.87945 19.762656,-6.04279 26.339726,-8.65107 3.50018,-1.38808 6.91348,-2.48813 7.58512,-2.44456 0.67163,0.0436 2.68477,1.08622 4.47365,2.31701 4.9709,3.42007 14.23247,7.52249 21.6043,9.56966 8.12642,2.25671 25.12314,3.12524 34.68157,1.77222 25.99943,-3.68026 51.91368,-18.17108 76.60283,-42.835 12.62699,-12.6141 24.67106,-27.79697 33.22907,-41.88891 2.10585,-3.46758 3.77886,-5.54038 4.16229,-5.15695 1.19201,1.19201 -0.0209,25.19471 -1.66272,32.90448 -8.6931,40.82124 -36.4885,73.9719 -74.61009,88.98499 -18.23098,7.17975 -40.86296,9.85216 -60.62145,7.15825 z"
     id="path6229"
     inkscape:connector-curvature="0" />
</svg>
